<?xml version="1.0" encoding="utf-8"?>
<!-- Generator: Adobe Illustrator 27.2.0, SVG Export Plug-In . SVG Version: 6.00 Build 0)  -->
<svg version="1.1" id="Layer_1" xmlns="http://www.w3.org/2000/svg" xmlns:xlink="http://www.w3.org/1999/xlink" x="0px" y="0px"
	 viewBox="0 0 317.4 368.9" style="enable-background:new 0 0 317.4 368.9;" xml:space="preserve">
<style type="text/css">
	.st0{fill-rule:evenodd;clip-rule:evenodd;fill:#1D124A;stroke:#221F20;stroke-width:0.4819;stroke-miterlimit:10;}
	.st1{fill-rule:evenodd;clip-rule:evenodd;fill:#A966AB;}
	.st2{fill-rule:evenodd;clip-rule:evenodd;fill:#7758A6;}
	.st3{fill-rule:evenodd;clip-rule:evenodd;fill:#FFFFFF;}
	.st4{fill-rule:evenodd;clip-rule:evenodd;fill:#C6DBDE;}
</style>
<g>
	<polygon class="st0" points="-1.4,277 157.7,368.9 316.8,277 316.8,93.3 157.7,1.5 -1.4,93.3 	"/>
	<path class="st1" d="M157.7,19.3l71.9,41.5l71.9,41.5v83v83l-71.9,41.5l-71.9,41.5l-71.9-41.5L14,268.2v-83v-83l71.9-41.5
		L157.7,19.3z M157.7,52.8L43,119v132.4l114.7,66.2l114.7-66.2V119L157.7,52.8z"/>
	<path class="st2" d="M157.7,317.6L43,251.4l-16.2,9.4v-75.6v-75.5l65.4-37.8l65.4-37.8l65.4,37.8l65.4,37.8l-16.2,9.3v132.4
		l16.2,9.4l-16.2-9.4L157.7,317.6z M26.8,260.7l65.4,37.8l65.4,37.8l65.4-37.8l65.4-37.8v-75.6v-75.5l12.9-7.4l-71.9-41.5
		l-71.9-41.5L85.8,60.7L14,102.2v83v83L26.8,260.7z"/>
	<polygon class="st3" points="72.5,152.4 100.9,168.8 127,183.9 129.3,185.2 114.3,193.9 100.9,201.6 72.5,218 72.5,234.3 
		86.7,242.6 115.1,226.2 128.5,218.4 157.7,201.6 186.9,218.4 200.3,226.2 228.7,242.6 242.8,234.3 242.8,218 214.5,201.6 
		201.1,193.9 186.1,185.2 188.4,183.9 214.5,168.8 242.8,152.4 242.8,136 228.7,127.8 200.3,144.2 174.2,159.3 157.7,168.8 
		141.2,159.3 115.1,144.2 86.7,127.8 72.5,136 	"/>
	<path class="st4" d="M123.1,181.6l3.8,2.2l2.4,1.3l-6.6,3.8h69.9l-6.6-3.8l2.3-1.3l3.8-2.2H123.1z M110.8,195.9l-9.9,5.7L72.5,218
		v16.4l14.2,8.2l28.4-16.4l13.4-7.7l29.2-16.8l29.2,16.8l13.4,7.7l28.4,16.4l14.2-8.2V218l-28.4-16.4l-9.9-5.7H110.8z"/>
</g>
</svg>
